<svg id="Ebene_1" data-name="Ebene 1" xmlns="http://www.w3.org/2000/svg" viewBox="0 0 134.24 35.58"><defs><style>.cls-1{fill:#004481;}.cls-2{fill:#eb690b;}.cls-3{fill:#4b4b4d;}</style></defs><title>logo</title><rect class="cls-1" x="23.12" y="57.48" width="11.47" height="0.44" transform="translate(-49.11 38.44) rotate(-72.06)"/><polygon class="cls-1" points="16.65 23.23 13.36 13.58 13.08 13.85 24.29 17.94 24.49 18.01 24.57 17.81 27.95 9.43 27.54 9.26 24.16 17.65 24.44 17.52 13.23 13.44 12.79 13.28 12.94 13.72 16.23 23.37 16.65 23.23"/><rect class="cls-1" x="40.18" y="46.25" width="0.44" height="8.4" transform="translate(-32.27 -6.01) rotate(-26.12)"/><polygon class="cls-1" points="3.06 20.18 13.27 13.83 13.32 13.8 13.35 13.74 18.41 2.71 18.02 2.53 12.95 13.55 13.04 13.46 2.82 19.81 3.06 20.18"/><rect class="cls-1" x="21.75" y="34.58" width="0.44" height="11.61" transform="translate(-37.92 16.32) rotate(-67.56)"/><circle class="cls-1" cx="12.91" cy="34.21" r="1.37"/><circle class="cls-1" cx="27.75" cy="9.34" r="3.1"/><circle class="cls-1" cx="28.06" cy="25.27" r="1.29"/><circle class="cls-1" cx="2.94" cy="20" r="1.87"/><circle class="cls-1" cx="2.42" cy="9.22" r="2.42"/><rect class="cls-2" x="15.6" width="5.24" height="5.24"/><rect class="cls-2" x="23.11" y="16.48" width="2.5" height="2.49"/><rect class="cls-2" x="14.03" y="20.88" width="4.83" height="4.83"/><rect class="cls-2" x="11.52" y="12.02" width="3.26" height="3.26"/><path class="cls-3" d="M53.68,49.18c0,0.24,0,.51,0,0.91V52a2,2,0,0,1-.43,1.52,1.49,1.49,0,0,1-1.09.4,1.8,1.8,0,0,1-1-.27l0.14-.46a1.56,1.56,0,0,0,.88.26,1,1,0,0,0,1-1.16V51.93h0a1,1,0,0,1-1,.56,1.44,1.44,0,0,1-1.28-1.62,1.54,1.54,0,0,1,1.35-1.76,1,1,0,0,1,.94.58h0l0-.5h0.47Zm-0.56,1.31a1,1,0,0,0,0-.28,0.8,0.8,0,0,0-.76-0.64,1.06,1.06,0,0,0-.89,1.26A1,1,0,0,0,52.32,52a0.81,0.81,0,0,0,.76-0.62,1.2,1.2,0,0,0,0-.32v-0.6Z" transform="translate(-14.19 -28.95)"/><path class="cls-3" d="M56.14,52.5l0-.42h0a1.08,1.08,0,0,1-.92.49,0.9,0.9,0,0,1-.92-1c0-.8.65-1.24,1.8-1.24V50.32a0.66,0.66,0,0,0-.68-0.77,1.39,1.39,0,0,0-.78.25l-0.12-.4a1.72,1.72,0,0,1,1-.29,1.14,1.14,0,0,1,1.14,1.36V51.7a5.19,5.19,0,0,0,0,.8h-0.5Zm-0.08-1.7c-0.6,0-1.27.1-1.27,0.75a0.51,0.51,0,0,0,.51.58A0.76,0.76,0,0,0,56,51.57a0.68,0.68,0,0,0,0-.19V50.81Z" transform="translate(-14.19 -28.95)"/><path class="cls-3" d="M58,48.22v1h0.78v0.46H58v1.79c0,0.41.1,0.65,0.41,0.65a1.12,1.12,0,0,0,.32,0l0,0.45a1.21,1.21,0,0,1-.48.08,0.72,0.72,0,0,1-.59-0.25,1.33,1.33,0,0,1-.21-0.87V49.64H57V49.18h0.47v-0.8Z" transform="translate(-14.19 -28.95)"/><path class="cls-3" d="M59.59,50.95a1,1,0,0,0,1,1.15,1.8,1.8,0,0,0,.83-0.17l0.09,0.43a2.22,2.22,0,0,1-1,.21,1.48,1.48,0,0,1-1.47-1.68,1.56,1.56,0,0,1,1.41-1.79,1.37,1.37,0,0,1,1.24,1.56c0,0.12,0,.22,0,0.28H59.59Zm1.6-.43a0.84,0.84,0,0,0-.76-1,1,1,0,0,0-.84,1h1.59Z" transform="translate(-14.19 -28.95)"/><path class="cls-3" d="M62.52,49.18l0.4,1.69c0.09,0.37.17,0.71,0.22,1.06h0c0.07-.34.17-0.69,0.27-1.05l0.49-1.7h0.46l0.46,1.66c0.11,0.4.2,0.75,0.27,1.08h0a10.79,10.79,0,0,1,.23-1.08l0.43-1.67h0.54l-1,3.32h-0.5L64.4,50.92c-0.11-.37-0.19-0.7-0.27-1.09h0a10.76,10.76,0,0,1-.27,1.1L63.37,52.5h-0.5L62,49.18h0.56Z" transform="translate(-14.19 -28.95)"/><path class="cls-3" d="M68.42,52.5l0-.42h0a1.09,1.09,0,0,1-.92.49,0.9,0.9,0,0,1-.92-1c0-.8.64-1.24,1.8-1.24V50.32a0.66,0.66,0,0,0-.68-0.77,1.39,1.39,0,0,0-.78.25l-0.12-.4a1.72,1.72,0,0,1,1-.29,1.14,1.14,0,0,1,1.14,1.36V51.7a5.19,5.19,0,0,0,.05.8h-0.5Zm-0.08-1.7c-0.6,0-1.27.1-1.27,0.75a0.51,0.51,0,0,0,.51.58,0.76,0.76,0,0,0,.72-0.56,0.68,0.68,0,0,0,0-.19V50.81Z" transform="translate(-14.19 -28.95)"/><path class="cls-3" d="M69.81,49.18l0.66,2c0.07,0.22.14,0.48,0.19,0.68h0c0.06-.2.12-0.45,0.19-0.69l0.6-2H72l-0.82,2.37a5.23,5.23,0,0,1-1,2.08,1.44,1.44,0,0,1-.67.39l-0.14-.51a1.41,1.41,0,0,0,.48-0.29,1.83,1.83,0,0,0,.46-0.67,0.47,0.47,0,0,0,0-.14,0.6,0.6,0,0,0,0-.16l-1.11-3.06h0.59Z" transform="translate(-14.19 -28.95)"/><path class="cls-3" d="M73.73,52.5V49.64H73.31V49.18h0.42V49a1.67,1.67,0,0,1,.35-1.16,1,1,0,0,1,.73-0.31,1.16,1.16,0,0,1,.46.1l-0.07.47A0.75,0.75,0,0,0,74.85,48c-0.46,0-.58.45-0.58,1v0.18H75v0.46H74.27V52.5H73.73Z" transform="translate(-14.19 -28.95)"/><path class="cls-3" d="M78,50.81a1.55,1.55,0,0,1-1.49,1.76,1.52,1.52,0,0,1-1.44-1.71,1.56,1.56,0,0,1,1.49-1.76A1.51,1.51,0,0,1,78,50.81Zm-2.38,0a1,1,0,1,0,.92-1.29A1.11,1.11,0,0,0,75.65,50.85Z" transform="translate(-14.19 -28.95)"/><path class="cls-3" d="M78.64,50.21c0-.39,0-0.73,0-1h0.48l0,0.65h0A0.92,0.92,0,0,1,80,49.1l0.15,0v0.57l-0.18,0a0.81,0.81,0,0,0-.73.78,2,2,0,0,0,0,.28V52.5H78.64V50.21h0Z" transform="translate(-14.19 -28.95)"/><path class="cls-3" d="M81.81,47.63h0.54V49.7h0a1.07,1.07,0,0,1,.39-0.42,1,1,0,0,1,.56-0.17c0.4,0,1,.28,1,1.42v2H83.81V50.59a0.74,0.74,0,1,0-1.42-.38,0.83,0.83,0,0,0,0,.29v2H81.81V47.63h0Z" transform="translate(-14.19 -28.95)"/><path class="cls-3" d="M85.46,50.95a1,1,0,0,0,1,1.15,1.8,1.8,0,0,0,.83-0.17l0.09,0.43a2.22,2.22,0,0,1-1,.21,1.48,1.48,0,0,1-1.47-1.68,1.56,1.56,0,0,1,1.41-1.79,1.37,1.37,0,0,1,1.24,1.56,2.56,2.56,0,0,1,0,.28H85.46Zm1.6-.43a0.84,0.84,0,0,0-.76-1,1,1,0,0,0-.84,1h1.59Z" transform="translate(-14.19 -28.95)"/><path class="cls-3" d="M89.84,52.5l0-.42h0a1.09,1.09,0,0,1-.92.49,0.9,0.9,0,0,1-.92-1c0-.8.64-1.24,1.8-1.24V50.32a0.66,0.66,0,0,0-.68-0.77,1.39,1.39,0,0,0-.78.25l-0.12-.4a1.72,1.72,0,0,1,1-.29,1.14,1.14,0,0,1,1.14,1.36V51.7a5.19,5.19,0,0,0,.05.8h-0.5Zm-0.08-1.7c-0.6,0-1.27.1-1.27,0.75a0.51,0.51,0,0,0,.51.58,0.76,0.76,0,0,0,.72-0.56,0.68,0.68,0,0,0,0-.19V50.81Z" transform="translate(-14.19 -28.95)"/><path class="cls-3" d="M91.08,47.63h0.54V52.5H91.08V47.63Z" transform="translate(-14.19 -28.95)"/><path class="cls-3" d="M93.12,48.22v1H93.9v0.46H93.12v1.79c0,0.41.1,0.65,0.41,0.65a1.12,1.12,0,0,0,.32,0l0,0.45a1.22,1.22,0,0,1-.48.08,0.72,0.72,0,0,1-.59-0.25,1.33,1.33,0,0,1-.21-0.87V49.64H92.12V49.18h0.46v-0.8Z" transform="translate(-14.19 -28.95)"/><path class="cls-3" d="M94.43,47.63H95V49.7h0a1.07,1.07,0,0,1,.39-0.42,1,1,0,0,1,.56-0.17c0.4,0,1,.28,1,1.42v2H96.43V50.59A0.74,0.74,0,1,0,95,50.21a0.83,0.83,0,0,0,0,.29v2H94.43V47.63h0Z" transform="translate(-14.19 -28.95)"/><rect class="cls-1" x="23.15" y="57.48" width="11.47" height="0.44" transform="translate(-49.1 38.46) rotate(-72.06)"/><polygon class="cls-1" points="16.67 23.23 13.38 13.58 13.1 13.85 24.31 17.93 24.51 18.01 24.59 17.81 27.97 9.43 27.56 9.26 24.18 17.65 24.46 17.52 13.25 13.44 12.82 13.28 12.96 13.72 16.25 23.37 16.67 23.23"/><rect class="cls-1" x="40.2" y="46.25" width="0.44" height="8.4" transform="translate(-32.27 -6) rotate(-26.12)"/><polygon class="cls-1" points="3.08 20.18 13.29 13.83 13.34 13.8 13.37 13.74 18.44 2.71 18.04 2.53 12.97 13.56 13.06 13.46 2.85 19.81 3.08 20.18"/><rect class="cls-1" x="21.77" y="34.58" width="0.44" height="11.61" transform="translate(-37.91 16.33) rotate(-67.55)"/><circle class="cls-1" cx="12.93" cy="34.21" r="1.37"/><path class="cls-1" d="M38.85,38.29A3.1,3.1,0,1,0,42,35.2,3.1,3.1,0,0,0,38.85,38.29Z" transform="translate(-14.19 -28.95)"/><circle class="cls-1" cx="28.08" cy="25.27" r="1.29"/><circle class="cls-1" cx="2.96" cy="20" r="1.87"/><circle class="cls-1" cx="2.44" cy="9.21" r="2.42"/><rect class="cls-2" x="15.62" width="5.24" height="5.24"/><rect class="cls-2" x="23.13" y="16.48" width="2.5" height="2.49"/><rect class="cls-2" x="14.05" y="20.88" width="4.83" height="4.83"/><rect class="cls-2" x="11.54" y="12.02" width="3.26" height="3.26"/><rect class="cls-1" x="23.19" y="57.48" width="11.47" height="0.44" transform="translate(-49.06 38.5) rotate(-72.06)"/><polygon class="cls-1" points="16.72 23.23 13.43 13.58 13.14 13.85 24.36 17.93 24.55 18.01 24.63 17.81 28.02 9.43 27.61 9.26 24.23 17.65 24.5 17.52 13.29 13.44 12.86 13.28 13.01 13.72 16.3 23.37 16.72 23.23"/><rect class="cls-1" x="40.25" y="46.25" width="0.44" height="8.4" transform="translate(-32.27 -5.98) rotate(-26.12)"/><polygon class="cls-1" points="3.12 20.18 13.34 13.83 13.39 13.8 13.42 13.74 18.48 2.71 18.08 2.53 13.02 13.56 13.1 13.46 2.89 19.81 3.12 20.18"/><rect class="cls-1" x="21.82" y="34.58" width="0.44" height="11.61" transform="translate(-37.88 16.38) rotate(-67.55)"/><circle class="cls-1" cx="12.98" cy="34.21" r="1.37"/><path class="cls-1" d="M38.9,38.29A3.1,3.1,0,1,0,42,35.2,3.1,3.1,0,0,0,38.9,38.29Z" transform="translate(-14.19 -28.95)"/><circle class="cls-1" cx="28.13" cy="25.27" r="1.29"/><circle class="cls-1" cx="3.01" cy="20" r="1.87"/><circle class="cls-1" cx="2.49" cy="9.21" r="2.42"/><rect class="cls-2" x="15.66" width="5.24" height="5.24"/><rect class="cls-2" x="23.18" y="16.48" width="2.5" height="2.49"/><rect class="cls-2" x="14.1" y="20.88" width="4.83" height="4.83"/><rect class="cls-2" x="11.59" y="12.02" width="3.26" height="3.26"/><path class="cls-3" d="M58.72,41.55a3.29,3.29,0,0,1-1.25,1.12,5.12,5.12,0,0,1-1.65.51,12.87,12.87,0,0,1-1.73.12H50.21v-12h4.1a7.47,7.47,0,0,1,1.7.18,4.26,4.26,0,0,1,1.34.54,2.6,2.6,0,0,1,.88.92,2.63,2.63,0,0,1,.31,1.3,2.72,2.72,0,0,1-.42,1.53,2.57,2.57,0,0,1-1.31,1,3.18,3.18,0,0,1,1.75,1,2.77,2.77,0,0,1,.66,1.85A3.48,3.48,0,0,1,58.72,41.55Zm-3.3-8.1a2.84,2.84,0,0,0-1.53-.35H52.8v3h1.05a2.57,2.57,0,0,0,1.58-.4A1.4,1.4,0,0,0,56,34.54,1.2,1.2,0,0,0,55.42,33.45ZM56,38.39a2.74,2.74,0,0,0-1.72-.47H52.8v3.5h1.5A2.73,2.73,0,0,0,56,40.94a1.56,1.56,0,0,0,.59-1.28A1.53,1.53,0,0,0,56,38.39Z" transform="translate(-14.19 -28.95)"/><path class="cls-3" d="M68.81,41.55a3.29,3.29,0,0,1-1.25,1.12,5.12,5.12,0,0,1-1.65.51,12.87,12.87,0,0,1-1.73.12H60.3v-12h4.1a7.47,7.47,0,0,1,1.7.18,4.26,4.26,0,0,1,1.34.54,2.52,2.52,0,0,1,1.19,2.23,2.72,2.72,0,0,1-.43,1.53,2.57,2.57,0,0,1-1.31,1,3.18,3.18,0,0,1,1.75,1,2.77,2.77,0,0,1,.66,1.85A3.48,3.48,0,0,1,68.81,41.55Zm-3.3-8.1A2.84,2.84,0,0,0,64,33.1H62.89v3h1.05a2.57,2.57,0,0,0,1.58-.4A1.4,1.4,0,0,0,66,34.54,1.2,1.2,0,0,0,65.51,33.45Zm0.59,4.94a2.74,2.74,0,0,0-1.72-.47h-1.5v3.5h1.5a2.73,2.73,0,0,0,1.74-.47,1.56,1.56,0,0,0,.59-1.28A1.53,1.53,0,0,0,66.1,38.39Z" transform="translate(-14.19 -28.95)"/><path class="cls-3" d="M82.62,43.3q0-2.42-.13-4.85t-0.24-4.64h0L78.92,43.3H76.37L73,33.81h0q-0.11,2.17-.2,4.62T72.7,43.3H70.39q0-3,.2-6t0.46-6h3.62l3.08,9.12h0l3-9.12h3.6q0.3,3.05.47,6.07t0.21,6H82.62Z" transform="translate(-14.19 -28.95)"/><path class="cls-3" d="M93.31,43.3l-3-5h-1.2v5H86.55v-12H91a7.35,7.35,0,0,1,1.81.21,4.26,4.26,0,0,1,1.39.61,2.87,2.87,0,0,1,.9,1,3,3,0,0,1,.32,1.42,3.1,3.1,0,0,1-.7,2.06,3.9,3.9,0,0,1-2,1.2L96.2,43.3H93.31Zm-1.08-9.72a2.23,2.23,0,0,0-1.49-.42H89.14v3.23h1.33a2.59,2.59,0,0,0,1.67-.47,1.53,1.53,0,0,0,.58-1.25A1.36,1.36,0,0,0,92.23,33.58Z" transform="translate(-14.19 -28.95)"/><path class="cls-3" d="M97.19,43.3v-12h2.59v12H97.19Z" transform="translate(-14.19 -28.95)"/><path class="cls-3" d="M101.06,39.61v-1.9h4.86v1.9h-4.86Z" transform="translate(-14.19 -28.95)"/><path class="cls-3" d="M107.19,43.3v-12h7.59v1.9h-5v3h4.32V38h-4.32V41.4h5.08v1.9h-7.67Z" transform="translate(-14.19 -28.95)"/><path class="cls-3" d="M123.41,43.3l-3-5h-1.2v5h-2.59v-12h4.43a7.35,7.35,0,0,1,1.81.21,4.26,4.26,0,0,1,1.39.61,2.87,2.87,0,0,1,.9,1,3,3,0,0,1,.32,1.42,3.1,3.1,0,0,1-.7,2.06,3.9,3.9,0,0,1-2,1.2l3.51,5.54h-2.88Zm-1.08-9.72a2.23,2.23,0,0,0-1.49-.42h-1.61v3.23h1.33a2.59,2.59,0,0,0,1.67-.47,1.53,1.53,0,0,0,.58-1.25A1.37,1.37,0,0,0,122.33,33.58Z" transform="translate(-14.19 -28.95)"/><path class="cls-3" d="M127.29,43.3v-12h2.59v12h-2.59Z" transform="translate(-14.19 -28.95)"/><path class="cls-3" d="M139.52,43.34a10.79,10.79,0,0,1-1.85.16,6.76,6.76,0,0,1-4.81-1.56,5.89,5.89,0,0,1-1.65-4.49,7.39,7.39,0,0,1,.47-2.72,5.35,5.35,0,0,1,1.35-2,6,6,0,0,1,2.11-1.24,8.23,8.23,0,0,1,2.74-.43,8.83,8.83,0,0,1,1.67.16,8.15,8.15,0,0,1,1.62.49l-0.61,1.86a6.78,6.78,0,0,0-1.33-.46,6.17,6.17,0,0,0-1.4-.16,4.08,4.08,0,0,0-1.69.33,3.5,3.5,0,0,0-1.23.91,3.83,3.83,0,0,0-.75,1.36,5.65,5.65,0,0,0-.25,1.72,4.64,4.64,0,0,0,1,3.19,3.78,3.78,0,0,0,3,1.16,7.45,7.45,0,0,0,1.4-.14,8,8,0,0,0,1.39-.4l0.48,1.85A10.13,10.13,0,0,1,139.52,43.34Z" transform="translate(-14.19 -28.95)"/><path class="cls-3" d="M148.42,32.19a2.36,2.36,0,1,1-2.34-2.13A2.22,2.22,0,0,1,148.42,32.19Zm-4.11,0a1.71,1.71,0,0,0,1.78,1.7,1.7,1.7,0,1,0,0-3.41A1.72,1.72,0,0,0,144.32,32.19Zm1.41,1.12h-0.53V31.18a4.94,4.94,0,0,1,.88-0.07,1.5,1.5,0,0,1,.79.16,0.58,0.58,0,0,1,.22.47,0.56,0.56,0,0,1-.47.49v0a0.64,0.64,0,0,1,.42.52,1.53,1.53,0,0,0,.17.53h-0.57a1.74,1.74,0,0,1-.18-0.52,0.4,0.4,0,0,0-.47-0.34h-0.25v0.86h0Zm0-1.21H146c0.29,0,.53-0.09.53-0.31s-0.15-.33-0.49-0.33a1.35,1.35,0,0,0-.29,0V32.1Z" transform="translate(-14.19 -28.95)"/></svg>