<?xml version="1.0" encoding="utf-8"?>
<!-- Generator: Adobe Illustrator 20.1.0, SVG Export Plug-In . SVG Version: 6.00 Build 0)  -->
<svg version="1.1" xmlns="http://www.w3.org/2000/svg" xmlns:xlink="http://www.w3.org/1999/xlink" x="0px" y="0px"
	 viewBox="0 0 134.2 35.6" style="enable-background:new 0 0 134.2 35.6;" xml:space="preserve">
<style type="text/css">
	.st0{display:none;}
	.st1{display:inline;fill:#004481;}
	.st2{display:inline;fill:#EB690B;}
	.st3{display:inline;fill:#4B4B4D;}
	.st4{fill:#004481;}
	.st5{fill:#EB690B;}
	.st6{fill:#4B4B4D;}
</style>
<g id="Ebene_1" class="st0">
	<title>logo</title>
	<rect x="8.9" y="28.5" transform="matrix(0.308 -0.9514 0.9514 0.308 -17.2093 33.861)" class="st1" width="11.5" height="0.4"/>
	<polygon class="st1" points="16.6,23.2 13.4,13.6 13.1,13.9 24.3,17.9 24.5,18 24.6,17.8 28,9.4 27.5,9.3 24.2,17.6 24.4,17.5 
		13.2,13.4 12.8,13.3 12.9,13.7 16.2,23.4 	"/>
	<rect x="26" y="17.3" transform="matrix(0.8979 -0.4403 0.4403 0.8979 -6.7889 13.737)" class="st1" width="0.4" height="8.4"/>
	<polygon class="st1" points="3.1,20.2 13.3,13.8 13.3,13.8 13.4,13.7 18.4,2.7 18,2.5 12.9,13.6 13,13.5 2.8,19.8 	"/>
	<rect x="7.6" y="5.6" transform="matrix(0.3817 -0.9243 0.9243 0.3817 -5.7452 14.2697)" class="st1" width="0.4" height="11.6"/>
	<circle class="st1" cx="12.9" cy="34.2" r="1.4"/>
	<circle class="st1" cx="27.8" cy="9.3" r="3.1"/>
	<circle class="st1" cx="28.1" cy="25.3" r="1.3"/>
	<circle class="st1" cx="2.9" cy="20" r="1.9"/>
	<circle class="st1" cx="2.4" cy="9.2" r="2.4"/>
	<rect x="15.6" class="st2" width="5.2" height="5.2"/>
	<rect x="23.1" y="16.5" class="st2" width="2.5" height="2.5"/>
	<rect x="14" y="20.9" class="st2" width="4.8" height="4.8"/>
	<rect x="11.5" y="12" class="st2" width="3.3" height="3.3"/>
	<path class="st3" d="M39.5,20.2c0,0.2,0,0.5,0,0.9V23c0.1,0.5-0.1,1.1-0.4,1.5C38.8,24.8,38.4,25,38,25c-0.4,0-0.7-0.1-1-0.3
		l0.1-0.5c0.3,0.2,0.6,0.3,0.9,0.3c0.6,0,1-0.4,1-1c0-0.1,0-0.1,0-0.2V23l0,0c-0.2,0.4-0.6,0.6-1,0.6c-0.8-0.1-1.4-0.8-1.3-1.6
		c0,0,0,0,0,0c-0.1-0.8,0.5-1.6,1.3-1.8c0,0,0,0,0.1,0c0.4,0,0.8,0.2,0.9,0.6l0,0v-0.5L39.5,20.2L39.5,20.2z M38.9,21.5
		c0-0.1,0-0.2,0-0.3c-0.1-0.4-0.4-0.6-0.8-0.6c-0.6,0.1-1,0.6-0.9,1.2c0,0,0,0,0,0.1c-0.1,0.5,0.3,1.1,0.8,1.2c0,0,0,0,0,0
		c0.4,0,0.7-0.3,0.8-0.6c0-0.1,0-0.2,0-0.3L38.9,21.5L38.9,21.5z"/>
	<path class="st3" d="M42,23.5v-0.4l0,0c-0.2,0.3-0.5,0.5-0.9,0.5c-0.5,0-0.9-0.4-0.9-0.9c0,0,0-0.1,0-0.1c0-0.8,0.7-1.2,1.8-1.2v0
		c0.1-0.4-0.2-0.7-0.5-0.8c0,0-0.1,0-0.1,0c-0.3,0-0.6,0.1-0.8,0.3l-0.1-0.4c0.3-0.2,0.6-0.3,1-0.3c0.6,0,1.1,0.5,1.2,1.1
		c0,0.1,0,0.2,0,0.2v1.2c0,0.3,0,0.5,0,0.8H42L42,23.5z M41.9,21.8c-0.6,0-1.3,0.1-1.3,0.8c0,0.3,0.2,0.5,0.4,0.6c0,0,0,0,0.1,0
		c0.3,0,0.6-0.2,0.7-0.6c0-0.1,0-0.1,0-0.2L41.9,21.8L41.9,21.8z"/>
	<path class="st3" d="M43.8,19.3v1h0.8v0.5h-0.8v1.8c0,0.4,0.1,0.7,0.4,0.7c0.1,0,0.2,0,0.3,0v0.5c-0.2,0.1-0.3,0.1-0.5,0.1
		c-0.2,0-0.4-0.1-0.6-0.3c-0.2-0.3-0.2-0.6-0.2-0.9v-1.9h-0.5v-0.5h0.5v-0.8L43.8,19.3z"/>
	<path class="st3" d="M45.4,22c-0.1,0.5,0.3,1.1,0.8,1.1c0.1,0,0.1,0,0.2,0c0.3,0,0.6,0,0.8-0.2l0.1,0.4c-0.3,0.1-0.7,0.2-1,0.2
		c-0.8,0-1.5-0.7-1.5-1.5c0-0.1,0-0.1,0-0.2c-0.1-0.9,0.5-1.6,1.3-1.8c0,0,0.1,0,0.1,0c0.8,0.1,1.3,0.7,1.2,1.5c0,0,0,0.1,0,0.1
		c0,0.1,0,0.2,0,0.3L45.4,22L45.4,22z M47,21.6c0.1-0.5-0.2-0.9-0.7-1c0,0-0.1,0-0.1,0c-0.5,0.1-0.8,0.5-0.8,1H47L47,21.6z"/>
	<path class="st3" d="M48.3,20.2l0.4,1.7c0.1,0.4,0.2,0.7,0.2,1.1l0,0c0.1-0.3,0.2-0.7,0.3-1l0.5-1.7h0.5l0.5,1.7
		c0.1,0.4,0.2,0.8,0.3,1.1l0,0c0.1-0.4,0.1-0.7,0.2-1.1l0.4-1.7h0.5l-1,3.3h-0.5L50.2,22c-0.1-0.4-0.2-0.7-0.3-1.1l0,0
		c-0.1,0.4-0.2,0.7-0.3,1.1l-0.5,1.6h-0.5l-0.9-3.3H48.3L48.3,20.2z"/>
	<path class="st3" d="M54.2,23.5v-0.4l0,0c-0.2,0.3-0.6,0.5-0.9,0.5c-0.5,0-0.9-0.4-0.9-0.9c0,0,0-0.1,0-0.1c0-0.8,0.6-1.2,1.8-1.2
		v0c0.1-0.4-0.2-0.7-0.5-0.8c0,0-0.1,0-0.1,0c-0.3,0-0.6,0.1-0.8,0.3l-0.1-0.4c0.3-0.2,0.6-0.3,1-0.3c0.6,0,1.1,0.5,1.2,1.1
		c0,0.1,0,0.2,0,0.2v1.2c0,0.3,0,0.5,0.1,0.8H54.2L54.2,23.5z M54.1,21.8c-0.6,0-1.3,0.1-1.3,0.8c0,0.3,0.2,0.5,0.4,0.6
		c0,0,0,0,0.1,0c0.3,0,0.6-0.2,0.7-0.6c0-0.1,0-0.1,0-0.2L54.1,21.8L54.1,21.8z"/>
	<path class="st3" d="M55.6,20.2l0.7,2c0.1,0.2,0.1,0.5,0.2,0.7l0,0c0.1-0.2,0.1-0.5,0.2-0.7l0.6-2h0.5L57,22.6
		c-0.2,0.8-0.5,1.5-1,2.1c-0.2,0.2-0.4,0.3-0.7,0.4l-0.1-0.5c0.2-0.1,0.3-0.2,0.5-0.3c0.2-0.2,0.4-0.4,0.5-0.7c0,0,0-0.1,0-0.1
		c0-0.1,0-0.1,0-0.2L55,20.2L55.6,20.2L55.6,20.2z"/>
	<path class="st3" d="M59.5,23.5v-2.9h-0.4v-0.5h0.4V20c0-0.4,0.1-0.8,0.3-1.2c0.2-0.2,0.5-0.3,0.7-0.3c0.2,0,0.3,0,0.5,0.1L61,19.1
		c-0.1-0.1-0.2-0.1-0.3-0.1c-0.5,0-0.6,0.5-0.6,1v0.2h0.7v0.5h-0.7v2.9H59.5z"/>
	<path class="st3" d="M63.8,21.9c0.1,0.8-0.5,1.6-1.3,1.7c-0.1,0-0.1,0-0.2,0c-0.8,0-1.5-0.7-1.5-1.6c0,0,0-0.1,0-0.1
		c-0.1-0.9,0.5-1.6,1.3-1.7c0,0,0.1,0,0.1,0c0.8,0,1.5,0.7,1.5,1.6C63.8,21.8,63.8,21.8,63.8,21.9z M61.4,21.9
		c0.2,0.5,0.7,0.8,1.2,0.7c0.5-0.2,0.8-0.7,0.7-1.2c-0.1-0.4-0.5-0.7-1-0.7C61.7,20.7,61.3,21.3,61.4,21.9
		C61.5,21.9,61.5,21.9,61.4,21.9L61.4,21.9z"/>
	<path class="st3" d="M64.4,21.3c0-0.4,0-0.7,0-1h0.5v0.7l0,0c0.1-0.4,0.4-0.7,0.9-0.8H66v0.6h-0.2c-0.4,0-0.7,0.4-0.7,0.8
		c0,0.1,0,0.2,0,0.3v1.8h-0.6V21.3L64.4,21.3z"/>
	<path class="st3" d="M67.6,18.7h0.5v2.1l0,0c0.1-0.2,0.2-0.3,0.4-0.4c0.2-0.1,0.4-0.2,0.6-0.2c0.4,0,1,0.3,1,1.4v2h-0.5v-1.9
		c0.2-0.4,0-0.8-0.4-1c-0.4-0.2-0.8,0-1,0.4c0,0.1,0,0.1,0,0.2c0,0.1,0,0.2,0,0.3v2h-0.6V18.7L67.6,18.7z"/>
	<path class="st3" d="M71.3,22c-0.1,0.5,0.3,1.1,0.8,1.1c0.1,0,0.1,0,0.2,0c0.3,0,0.6,0,0.8-0.2l0.1,0.4c-0.3,0.1-0.7,0.2-1,0.2
		c-0.8,0-1.5-0.7-1.5-1.5c0-0.1,0-0.1,0-0.2c-0.1-0.9,0.5-1.6,1.3-1.8c0,0,0.1,0,0.1,0c0.8,0.1,1.3,0.7,1.2,1.5c0,0,0,0.1,0,0.1
		c0,0.1,0,0.2,0,0.3L71.3,22L71.3,22z M72.9,21.6c0.1-0.5-0.2-0.9-0.7-1c0,0-0.1,0-0.1,0c-0.5,0.1-0.8,0.5-0.8,1H72.9L72.9,21.6z"/>
	<path class="st3" d="M75.6,23.5v-0.4l0,0c-0.2,0.3-0.6,0.5-0.9,0.5c-0.5,0-0.9-0.4-0.9-0.9c0,0,0-0.1,0-0.1c0-0.8,0.6-1.2,1.8-1.2
		v0c0.1-0.4-0.2-0.7-0.5-0.8c0,0-0.1,0-0.1,0c-0.3,0-0.6,0.1-0.8,0.3L74,20.4c0.3-0.2,0.6-0.3,1-0.3c0.6,0,1.1,0.5,1.2,1.1
		c0,0.1,0,0.2,0,0.2v1.2c0,0.3,0,0.5,0.1,0.8H75.6L75.6,23.5z M75.6,21.8c-0.6,0-1.3,0.1-1.3,0.8c0,0.3,0.2,0.5,0.4,0.6
		c0,0,0,0,0.1,0c0.3,0,0.6-0.2,0.7-0.6c0-0.1,0-0.1,0-0.2L75.6,21.8L75.6,21.8z"/>
	<path class="st3" d="M76.9,18.7h0.5v4.9h-0.5V18.7z"/>
	<path class="st3" d="M78.9,19.3v1h0.8v0.5h-0.8v1.8c0,0.4,0.1,0.7,0.4,0.7c0.1,0,0.2,0,0.3,0v0.5c-0.2,0.1-0.3,0.1-0.5,0.1
		c-0.2,0-0.4-0.1-0.6-0.3c-0.2-0.3-0.2-0.6-0.2-0.9v-1.9h-0.5v-0.5h0.5v-0.8L78.9,19.3z"/>
	<path class="st3" d="M80.2,18.7h0.6v2.1l0,0c0.1-0.2,0.2-0.3,0.4-0.4c0.2-0.1,0.4-0.2,0.6-0.2c0.4,0,1,0.3,1,1.4v2h-0.5v-1.9
		c0.1-0.4-0.1-0.8-0.5-0.9c-0.4-0.1-0.8,0.1-0.9,0.5c0,0,0,0,0,0c0,0.1,0,0.2,0,0.3v2h-0.6V18.7L80.2,18.7z"/>
	<rect x="9" y="28.5" transform="matrix(0.308 -0.9514 0.9514 0.308 -17.1879 33.8734)" class="st1" width="11.5" height="0.4"/>
	<polygon class="st1" points="16.7,23.2 13.4,13.6 13.1,13.9 24.3,17.9 24.5,18 24.6,17.8 28,9.4 27.6,9.3 24.2,17.6 24.5,17.5 
		13.3,13.4 12.8,13.3 13,13.7 16.3,23.4 	"/>
	<rect x="26" y="17.3" transform="matrix(0.8979 -0.4403 0.4403 0.8979 -6.7876 13.7451)" class="st1" width="0.4" height="8.4"/>
	<polygon class="st1" points="3.1,20.2 13.3,13.8 13.3,13.8 13.4,13.7 18.4,2.7 18,2.5 13,13.6 13.1,13.5 2.8,19.8 	"/>
	<rect x="7.6" y="5.6" transform="matrix(0.3819 -0.9242 0.9242 0.3819 -5.7338 14.2841)" class="st1" width="0.4" height="11.6"/>
	<circle class="st1" cx="12.9" cy="34.2" r="1.4"/>
	<path class="st1" d="M24.7,9.3c0,1.7,1.4,3.1,3.1,3.1s3.1-1.4,3.1-3.1c0-1.7-1.4-3.1-3-3.1C26.1,6.2,24.7,7.6,24.7,9.3
		C24.7,9.3,24.7,9.3,24.7,9.3z"/>
	<circle class="st1" cx="28.1" cy="25.3" r="1.3"/>
	<circle class="st1" cx="3" cy="20" r="1.9"/>
	<circle class="st1" cx="2.4" cy="9.2" r="2.4"/>
	<rect x="15.6" class="st2" width="5.2" height="5.2"/>
	<rect x="23.1" y="16.5" class="st2" width="2.5" height="2.5"/>
	<rect x="14.1" y="20.9" class="st2" width="4.8" height="4.8"/>
	<rect x="11.5" y="12" class="st2" width="3.3" height="3.3"/>
	<rect x="9" y="28.5" transform="matrix(0.308 -0.9514 0.9514 0.308 -17.1535 33.9245)" class="st1" width="11.5" height="0.4"/>
	<polygon class="st1" points="16.7,23.2 13.4,13.6 13.1,13.9 24.4,17.9 24.5,18 24.6,17.8 28,9.4 27.6,9.3 24.2,17.6 24.5,17.5 
		13.3,13.4 12.9,13.3 13,13.7 16.3,23.4 	"/>
	<rect x="26.1" y="17.3" transform="matrix(0.8979 -0.4403 0.4403 0.8979 -6.7821 13.7646)" class="st1" width="0.4" height="8.4"/>
	<polygon class="st1" points="3.1,20.2 13.3,13.8 13.4,13.8 13.4,13.7 18.5,2.7 18.1,2.5 13,13.6 13.1,13.5 2.9,19.8 	"/>
	<rect x="7.6" y="5.6" transform="matrix(0.3819 -0.9242 0.9242 0.3819 -5.707 14.3318)" class="st1" width="0.4" height="11.6"/>
	<circle class="st1" cx="13" cy="34.2" r="1.4"/>
	<path class="st1" d="M24.7,9.3c0,1.7,1.4,3.1,3.1,3.1c1.7,0,3.1-1.4,3.1-3.1c0-1.7-1.4-3.1-3.1-3.1c0,0,0,0,0,0
		C26.1,6.2,24.7,7.6,24.7,9.3z"/>
	<circle class="st1" cx="28.1" cy="25.3" r="1.3"/>
	<circle class="st1" cx="3" cy="20" r="1.9"/>
	<circle class="st1" cx="2.5" cy="9.2" r="2.4"/>
	<rect x="15.7" class="st2" width="5.2" height="5.2"/>
	<rect x="23.2" y="16.5" class="st2" width="2.5" height="2.5"/>
	<rect x="14.1" y="20.9" class="st2" width="4.8" height="4.8"/>
	<rect x="11.6" y="12" class="st2" width="3.3" height="3.3"/>
	<path class="st3" d="M44.5,12.6c-0.3,0.5-0.7,0.9-1.3,1.1c-0.5,0.3-1.1,0.4-1.7,0.5c-0.6,0.1-1.2,0.1-1.7,0.1H36v-12h4.1
		c0.6,0,1.1,0.1,1.7,0.2c0.5,0.1,0.9,0.3,1.3,0.5C43.5,3.3,43.8,3.6,44,4c0.2,0.4,0.3,0.8,0.3,1.3c0,0.5-0.1,1.1-0.4,1.5
		c-0.3,0.5-0.8,0.8-1.3,1c0.7,0.1,1.3,0.5,1.8,1C44.8,9.3,45,10,45,10.7C45.1,11.3,44.9,12,44.5,12.6z M41.2,4.5
		c-0.5-0.3-1-0.4-1.5-0.3h-1.1v3h1c0.6,0,1.1-0.1,1.6-0.4c0.4-0.3,0.6-0.7,0.6-1.2C41.8,5.1,41.6,4.7,41.2,4.5z M41.8,9.4
		c-0.5-0.3-1.1-0.5-1.7-0.5h-1.5v3.5h1.5c0.6,0,1.2-0.1,1.7-0.5c0.4-0.3,0.6-0.8,0.6-1.3C42.4,10.2,42.2,9.7,41.8,9.4z"/>
	<path class="st3" d="M54.6,12.6c-0.3,0.5-0.7,0.9-1.3,1.1c-0.5,0.3-1.1,0.4-1.7,0.5c-0.6,0.1-1.2,0.1-1.7,0.1h-3.9v-12h4.1
		c0.6,0,1.1,0.1,1.7,0.2c0.5,0.1,0.9,0.3,1.3,0.5c0.8,0.5,1.2,1.3,1.2,2.2c0,0.5-0.1,1.1-0.4,1.5c-0.3,0.5-0.8,0.8-1.3,1
		c0.7,0.1,1.3,0.5,1.8,1c0.4,0.5,0.7,1.2,0.7,1.8C55.1,11.4,55,12,54.6,12.6z M51.3,4.5c-0.5-0.3-1-0.4-1.5-0.3h-1.1v3h1
		c0.6,0,1.1-0.1,1.6-0.4c0.3-0.3,0.5-0.7,0.5-1.2C51.9,5.2,51.7,4.8,51.3,4.5z M51.9,9.4c-0.5-0.3-1.1-0.5-1.7-0.5h-1.5v3.5h1.5
		c0.6,0,1.2-0.1,1.7-0.5c0.4-0.3,0.6-0.8,0.6-1.3C52.5,10.2,52.3,9.7,51.9,9.4z"/>
	<path class="st3" d="M68.4,14.3c0-1.6,0-3.2-0.1-4.8c-0.1-1.6-0.2-3.2-0.2-4.6l0,0l-3.3,9.5h-2.5l-3.4-9.5l0,0
		c-0.1,1.4-0.1,3-0.2,4.6s-0.1,3.3-0.1,4.9h-2.3c0-2,0.1-4,0.2-6s0.3-4,0.5-6h3.6l3.1,9.1l0,0l3-9.1h3.6c0.2,2,0.4,4.1,0.5,6.1
		c0.1,2,0.2,4,0.2,6L68.4,14.3L68.4,14.3z"/>
	<path class="st3" d="M79.1,14.3l-3-5h-1.2v5h-2.6v-12h4.4c0.6,0,1.2,0.1,1.8,0.2c0.5,0.1,1,0.3,1.4,0.6c0.4,0.3,0.7,0.6,0.9,1
		c0.2,0.4,0.3,0.9,0.3,1.4c0,0.7-0.2,1.5-0.7,2.1c-0.5,0.6-1.2,1-2,1.2l3.5,5.5H79.1z M78,4.6c-0.4-0.3-1-0.5-1.5-0.4h-1.6v3.2h1.3
		c0.6,0,1.2-0.1,1.7-0.5c0.4-0.3,0.6-0.8,0.6-1.3C78.5,5.3,78.4,4.9,78,4.6z"/>
	<path class="st3" d="M83,14.3v-12h2.6v12H83z"/>
	<path class="st3" d="M86.9,10.7V8.8h4.9v1.9H86.9z"/>
	<path class="st3" d="M93,14.3v-12h7.6v1.9h-5v3h4.3V9h-4.3v3.4h5.1v1.9C100.7,14.4,93,14.4,93,14.3z"/>
	<path class="st3" d="M109.2,14.3l-3-5H105v5h-2.6v-12h4.4c0.6,0,1.2,0.1,1.8,0.2c0.5,0.1,1,0.3,1.4,0.6c0.4,0.3,0.7,0.6,0.9,1
		c0.2,0.4,0.3,0.9,0.3,1.4c0,0.7-0.2,1.5-0.7,2.1c-0.5,0.6-1.2,1-2,1.2l3.5,5.5L109.2,14.3L109.2,14.3z M108.1,4.6
		c-0.4-0.3-1-0.5-1.5-0.4H105v3.2h1.3c0.6,0,1.2-0.1,1.7-0.5c0.4-0.3,0.6-0.8,0.6-1.3C108.6,5.3,108.5,4.9,108.1,4.6z"/>
	<path class="st3" d="M113.1,14.3v-12h2.6v12C115.7,14.3,113.1,14.3,113.1,14.3z"/>
	<path class="st3" d="M125.3,14.4c-0.6,0.1-1.2,0.2-1.9,0.2c-1.7,0.1-3.5-0.4-4.8-1.6c-1.2-1.2-1.8-2.8-1.6-4.5
		c0-0.9,0.1-1.9,0.5-2.7c0.3-0.8,0.8-1.4,1.4-2c0.6-0.6,1.3-1,2.1-1.2c0.9-0.3,1.8-0.4,2.7-0.4c0.6,0,1.1,0.1,1.7,0.2
		c0.6,0.1,1.1,0.3,1.6,0.5l-0.6,1.9c-0.4-0.2-0.9-0.4-1.3-0.5c-0.5-0.1-0.9-0.2-1.4-0.2c-0.6,0-1.2,0.1-1.7,0.3
		c-0.5,0.2-0.9,0.5-1.2,0.9c-0.3,0.4-0.6,0.9-0.8,1.4c-0.2,0.6-0.3,1.1-0.3,1.7c-0.1,1.2,0.3,2.3,1,3.2c0.8,0.8,1.9,1.2,3,1.2
		c0.5,0,0.9,0,1.4-0.1c0.5-0.1,0.9-0.2,1.4-0.4L127,14C126.4,14.2,125.9,14.3,125.3,14.4z"/>
	<path class="st3" d="M134.2,3.2c0.1,1.3-0.8,2.5-2.1,2.6c-1.3,0.1-2.5-0.8-2.6-2.1s0.8-2.5,2.1-2.6c0.1,0,0.2,0,0.2,0
		C133.1,1,134.2,2,134.2,3.2C134.2,3.2,134.2,3.2,134.2,3.2z M130.1,3.2c0,0.9,0.8,1.7,1.7,1.7c0,0,0,0,0.1,0c0.9,0,1.7-0.8,1.7-1.7
		c0-0.9-0.8-1.7-1.7-1.7C131,1.5,130.2,2.2,130.1,3.2C130.1,3.2,130.1,3.2,130.1,3.2L130.1,3.2z M131.5,4.4H131V2.2
		c0.3,0,0.6-0.1,0.9-0.1c0.3,0,0.5,0,0.8,0.2c0.1,0.1,0.2,0.3,0.2,0.5c0,0.3-0.2,0.5-0.5,0.5l0,0c0.2,0.1,0.4,0.3,0.4,0.5
		c0,0.2,0.1,0.4,0.2,0.5h-0.6c-0.1-0.2-0.1-0.3-0.2-0.5c0-0.2-0.2-0.4-0.4-0.3c0,0,0,0,0,0h-0.3L131.5,4.4L131.5,4.4L131.5,4.4z
		 M131.5,3.1h0.3c0.3,0,0.5-0.1,0.5-0.3s-0.1-0.3-0.5-0.3c-0.1,0-0.2,0-0.3,0L131.5,3.1L131.5,3.1z"/>
</g>
<g id="Ebene_2">
	<g>
		<g>
			
				<rect x="8.9" y="28.5" transform="matrix(0.308 -0.9514 0.9514 0.308 -17.1384 33.8162)" class="st4" width="11.5" height="0.4"/>
		</g>
		<g>
			<polygon class="st4" points="16.7,23.2 13.4,13.5 13.1,13.8 24.3,17.9 24.5,17.9 24.6,17.7 28,9.4 27.5,9.2 24.2,17.6 24.4,17.5 
				13.2,13.4 12.8,13.2 12.9,13.7 16.2,23.3 			"/>
		</g>
		<g>
			<rect x="26" y="17.2" transform="matrix(0.8978 -0.4403 0.4403 0.8978 -6.7598 13.7328)" class="st4" width="0.4" height="8.4"/>
		</g>
		<g>
			<polygon class="st4" points="3.1,20.1 13.3,13.8 13.3,13.7 13.4,13.7 18.4,2.6 18,2.5 13,13.5 13,13.4 2.8,19.7 			"/>
		</g>
		<g>
			
				<rect x="7.6" y="5.6" transform="matrix(0.3818 -0.9243 0.9243 0.3818 -5.6914 14.2281)" class="st4" width="0.4" height="11.6"/>
		</g>
	</g>
	<g>
		<g>
			<circle class="st4" cx="12.9" cy="34.1" r="1.4"/>
			<circle class="st4" cx="27.7" cy="9.3" r="3.1"/>
			<circle class="st4" cx="28.1" cy="25.2" r="1.3"/>
			<circle class="st4" cx="2.9" cy="19.9" r="1.9"/>
			<circle class="st4" cx="2.4" cy="9.2" r="2.4"/>
		</g>
		<g>
			<rect x="15.6" y="-0.1" class="st5" width="5.2" height="5.2"/>
			<rect x="23.1" y="16.4" class="st5" width="2.5" height="2.5"/>
			<rect x="14" y="20.8" class="st5" width="4.8" height="4.8"/>
			<rect x="11.5" y="12" class="st5" width="3.3" height="3.3"/>
		</g>
	</g>
	<g>
		<path class="st6" d="M39.5,20.2c0,0.2,0,0.5,0,0.9V23c0,0.8-0.1,1.2-0.4,1.5c-0.3,0.3-0.7,0.4-1.1,0.4c-0.4,0-0.8-0.1-1-0.3
			l0.1-0.5c0.2,0.1,0.5,0.3,0.9,0.3c0.6,0,1-0.3,1-1.2v-0.4h0c-0.2,0.3-0.5,0.6-1,0.6c-0.7,0-1.3-0.7-1.3-1.6c0-1.1,0.7-1.8,1.4-1.8
			c0.5,0,0.8,0.3,0.9,0.6h0l0-0.5L39.5,20.2L39.5,20.2z M38.9,21.5c0-0.1,0-0.2,0-0.3c-0.1-0.3-0.4-0.6-0.8-0.6
			c-0.5,0-0.9,0.5-0.9,1.3c0,0.7,0.3,1.2,0.9,1.2c0.3,0,0.6-0.2,0.8-0.6c0-0.1,0-0.2,0-0.3C38.9,22.1,38.9,21.5,38.9,21.5z"/>
		<path class="st6" d="M42,23.5l0-0.4h0c-0.2,0.3-0.5,0.5-0.9,0.5c-0.6,0-0.9-0.5-0.9-1c0-0.8,0.6-1.2,1.8-1.2v-0.1
			c0-0.3-0.1-0.8-0.7-0.8c-0.3,0-0.6,0.1-0.8,0.2l-0.1-0.4c0.2-0.2,0.6-0.3,1-0.3c0.9,0,1.1,0.7,1.1,1.4v1.2c0,0.3,0,0.6,0,0.8
			L42,23.5L42,23.5z M41.9,21.8c-0.6,0-1.3,0.1-1.3,0.7c0,0.4,0.2,0.6,0.5,0.6c0.4,0,0.6-0.3,0.7-0.6c0-0.1,0-0.1,0-0.2
			C41.9,22.4,41.9,21.8,41.9,21.8z"/>
		<path class="st6" d="M43.8,19.2v1h0.8v0.5h-0.8v1.8c0,0.4,0.1,0.6,0.4,0.6c0.1,0,0.2,0,0.3,0l0,0.5c-0.1,0-0.3,0.1-0.5,0.1
			c-0.3,0-0.5-0.1-0.6-0.3c-0.2-0.2-0.2-0.5-0.2-0.9v-1.8h-0.5v-0.5h0.5v-0.8L43.8,19.2z"/>
		<path class="st6" d="M45.4,21.9c0,0.8,0.5,1.2,1,1.2c0.4,0,0.6-0.1,0.8-0.2l0.1,0.4c-0.2,0.1-0.5,0.2-1,0.2
			c-0.9,0-1.5-0.7-1.5-1.7c0-1,0.5-1.8,1.4-1.8c1,0,1.2,1,1.2,1.6c0,0.1,0,0.2,0,0.3H45.4z M47,21.5c0-0.4-0.1-1-0.8-1
			c-0.6,0-0.8,0.6-0.8,1H47z"/>
		<path class="st6" d="M48.3,20.2l0.4,1.7c0.1,0.4,0.2,0.7,0.2,1.1h0c0.1-0.3,0.2-0.7,0.3-1.1l0.5-1.7h0.5l0.5,1.7
			c0.1,0.4,0.2,0.7,0.3,1.1h0c0-0.3,0.1-0.7,0.2-1.1l0.4-1.7h0.5l-1,3.3h-0.5l-0.5-1.6c-0.1-0.4-0.2-0.7-0.3-1.1h0
			c-0.1,0.4-0.2,0.7-0.3,1.1l-0.5,1.6h-0.5l-0.9-3.3L48.3,20.2L48.3,20.2z"/>
		<path class="st6" d="M54.2,23.5l0-0.4h0c-0.2,0.3-0.5,0.5-0.9,0.5c-0.6,0-0.9-0.5-0.9-1c0-0.8,0.6-1.2,1.8-1.2v-0.1
			c0-0.3-0.1-0.8-0.7-0.8c-0.3,0-0.6,0.1-0.8,0.2l-0.1-0.4c0.2-0.2,0.6-0.3,1-0.3c0.9,0,1.1,0.7,1.1,1.4v1.2c0,0.3,0,0.6,0.1,0.8
			L54.2,23.5L54.2,23.5z M54.2,21.8c-0.6,0-1.3,0.1-1.3,0.7c0,0.4,0.2,0.6,0.5,0.6c0.4,0,0.6-0.3,0.7-0.6c0-0.1,0-0.1,0-0.2
			C54.2,22.4,54.2,21.8,54.2,21.8z"/>
		<path class="st6" d="M55.6,20.2l0.7,2c0.1,0.2,0.1,0.5,0.2,0.7h0c0.1-0.2,0.1-0.5,0.2-0.7l0.6-2h0.6L57,22.5
			c-0.4,1.1-0.7,1.7-1,2.1c-0.3,0.3-0.5,0.4-0.7,0.4l-0.1-0.5c0.1,0,0.3-0.1,0.5-0.3c0.1-0.1,0.3-0.4,0.5-0.7c0-0.1,0-0.1,0-0.1
			s0-0.1,0-0.2L55,20.2L55.6,20.2L55.6,20.2z"/>
		<path class="st6" d="M59.5,23.5v-2.9h-0.4v-0.5h0.4V20c0-0.5,0.1-0.9,0.3-1.2c0.2-0.2,0.5-0.3,0.7-0.3c0.2,0,0.4,0,0.5,0.1
			L61,19.1c-0.1,0-0.2-0.1-0.3-0.1c-0.5,0-0.6,0.5-0.6,1v0.2h0.7v0.5h-0.7v2.9H59.5z"/>
		<path class="st6" d="M63.8,21.8c0,1.2-0.8,1.8-1.5,1.8c-0.8,0-1.4-0.7-1.4-1.7c0-1.1,0.7-1.8,1.5-1.8
			C63.3,20.1,63.8,20.8,63.8,21.8z M61.5,21.8c0,0.7,0.4,1.3,0.9,1.3c0.5,0,0.9-0.5,0.9-1.3c0-0.6-0.3-1.3-0.9-1.3
			S61.5,21.2,61.5,21.8z"/>
		<path class="st6" d="M64.5,21.2c0-0.4,0-0.7,0-1h0.5l0,0.7h0c0.1-0.4,0.5-0.7,0.8-0.7c0.1,0,0.1,0,0.2,0v0.6c-0.1,0-0.1,0-0.2,0
			c-0.4,0-0.7,0.3-0.7,0.8c0,0.1,0,0.2,0,0.3v1.8h-0.5L64.5,21.2L64.5,21.2z"/>
		<path class="st6" d="M67.6,18.6h0.5v2.1h0c0.1-0.2,0.2-0.3,0.4-0.4c0.2-0.1,0.4-0.2,0.6-0.2c0.4,0,1,0.3,1,1.4v2h-0.5v-1.9
			c0-0.5-0.2-1-0.7-1c-0.4,0-0.6,0.3-0.7,0.6c0,0.1,0,0.2,0,0.3v2h-0.5L67.6,18.6L67.6,18.6z"/>
		<path class="st6" d="M71.3,21.9c0,0.8,0.5,1.2,1,1.2c0.4,0,0.6-0.1,0.8-0.2l0.1,0.4c-0.2,0.1-0.5,0.2-1,0.2
			c-0.9,0-1.5-0.7-1.5-1.7c0-1,0.5-1.8,1.4-1.8c1,0,1.2,1,1.2,1.6c0,0.1,0,0.2,0,0.3H71.3z M72.9,21.5c0-0.4-0.1-1-0.8-1
			c-0.6,0-0.8,0.6-0.8,1H72.9z"/>
		<path class="st6" d="M75.7,23.5l0-0.4h0c-0.2,0.3-0.5,0.5-0.9,0.5c-0.6,0-0.9-0.5-0.9-1c0-0.8,0.6-1.2,1.8-1.2v-0.1
			c0-0.3-0.1-0.8-0.7-0.8c-0.3,0-0.6,0.1-0.8,0.2L74,20.4c0.2-0.2,0.6-0.3,1-0.3c0.9,0,1.1,0.7,1.1,1.4v1.2c0,0.3,0,0.6,0.1,0.8
			L75.7,23.5L75.7,23.5z M75.6,21.8c-0.6,0-1.3,0.1-1.3,0.7c0,0.4,0.2,0.6,0.5,0.6c0.4,0,0.6-0.3,0.7-0.6c0-0.1,0-0.1,0-0.2
			C75.6,22.4,75.6,21.8,75.6,21.8z"/>
		<path class="st6" d="M76.9,18.6h0.5v4.9h-0.5V18.6z"/>
		<path class="st6" d="M78.9,19.2v1h0.8v0.5h-0.8v1.8c0,0.4,0.1,0.6,0.4,0.6c0.1,0,0.2,0,0.3,0l0,0.5c-0.1,0-0.3,0.1-0.5,0.1
			c-0.3,0-0.5-0.1-0.6-0.3c-0.2-0.2-0.2-0.5-0.2-0.9v-1.8h-0.5v-0.5h0.5v-0.8L78.9,19.2z"/>
		<path class="st6" d="M80.2,18.6h0.5v2.1h0c0.1-0.2,0.2-0.3,0.4-0.4c0.2-0.1,0.4-0.2,0.6-0.2c0.4,0,1,0.3,1,1.4v2h-0.5v-1.9
			c0-0.5-0.2-1-0.7-1c-0.4,0-0.6,0.3-0.7,0.6c0,0.1,0,0.2,0,0.3v2h-0.5L80.2,18.6L80.2,18.6z"/>
	</g>
	<g>
		<g>
			<rect x="9" y="28.5" transform="matrix(0.308 -0.9514 0.9514 0.308 -17.1238 33.8361)" class="st4" width="11.5" height="0.4"/>
		</g>
		<g>
			<polygon class="st4" points="16.7,23.2 13.4,13.5 13.1,13.8 24.3,17.9 24.5,17.9 24.6,17.7 28,9.4 27.6,9.2 24.2,17.6 24.5,17.5 
				13.2,13.4 12.8,13.2 13,13.7 16.3,23.3 			"/>
		</g>
		<g>
			<rect x="26" y="17.2" transform="matrix(0.8979 -0.4403 0.4403 0.8979 -6.7598 13.7401)" class="st4" width="0.4" height="8.4"/>
		</g>
		<g>
			<polygon class="st4" points="3.1,20.1 13.3,13.8 13.3,13.7 13.4,13.7 18.4,2.6 18,2.5 13,13.5 13.1,13.4 2.8,19.7 			"/>
		</g>
		<g>
			
				<rect x="7.6" y="5.6" transform="matrix(0.3819 -0.9242 0.9242 0.3819 -5.6791 14.2418)" class="st4" width="0.4" height="11.6"/>
		</g>
	</g>
	<g>
		<g>
			<circle class="st4" cx="12.9" cy="34.1" r="1.4"/>
			<path class="st4" d="M24.7,9.3c0,1.7,1.4,3.1,3.1,3.1s3.1-1.4,3.1-3.1c0-1.7-1.4-3.1-3.1-3.1S24.7,7.6,24.7,9.3z"/>
			<circle class="st4" cx="28.1" cy="25.2" r="1.3"/>
			<circle class="st4" cx="3" cy="19.9" r="1.9"/>
			<circle class="st4" cx="2.4" cy="9.1" r="2.4"/>
		</g>
		<g>
			<rect x="15.6" y="-0.1" class="st5" width="5.2" height="5.2"/>
			<rect x="23.1" y="16.4" class="st5" width="2.5" height="2.5"/>
			<rect x="14.1" y="20.8" class="st5" width="4.8" height="4.8"/>
			<rect x="11.5" y="12" class="st5" width="3.3" height="3.3"/>
		</g>
	</g>
	<g>
		<g>
			<rect x="9" y="28.5" transform="matrix(0.308 -0.9514 0.9514 0.308 -17.0904 33.8804)" class="st4" width="11.5" height="0.4"/>
		</g>
		<g>
			<polygon class="st4" points="16.7,23.2 13.4,13.5 13.1,13.8 24.4,17.9 24.6,17.9 24.6,17.7 28,9.4 27.6,9.2 24.2,17.6 24.5,17.5 
				13.3,13.4 12.9,13.2 13,13.7 16.3,23.3 			"/>
		</g>
		<g>
			
				<rect x="26.1" y="17.2" transform="matrix(0.8979 -0.4403 0.4403 0.8979 -6.755 13.7609)" class="st4" width="0.4" height="8.4"/>
		</g>
		<g>
			<polygon class="st4" points="3.1,20.1 13.3,13.8 13.4,13.7 13.4,13.7 18.5,2.6 18.1,2.5 13,13.5 13.1,13.4 2.9,19.7 			"/>
		</g>
		<g>
			
				<rect x="7.6" y="5.6" transform="matrix(0.3819 -0.9242 0.9242 0.3819 -5.6503 14.2842)" class="st4" width="0.4" height="11.6"/>
		</g>
	</g>
	<g>
		<g>
			<circle class="st4" cx="13" cy="34.1" r="1.4"/>
			<path class="st4" d="M24.7,9.3c0,1.7,1.4,3.1,3.1,3.1s3.1-1.4,3.1-3.1c0-1.7-1.4-3.1-3.1-3.1S24.7,7.6,24.7,9.3z"/>
			<circle class="st4" cx="28.1" cy="25.2" r="1.3"/>
			<circle class="st4" cx="3" cy="19.9" r="1.9"/>
			<circle class="st4" cx="2.5" cy="9.1" r="2.4"/>
		</g>
		<g>
			<rect x="15.7" y="-0.1" class="st5" width="5.2" height="5.2"/>
			<rect x="23.2" y="16.4" class="st5" width="2.5" height="2.5"/>
			<rect x="14.1" y="20.8" class="st5" width="4.8" height="4.8"/>
			<rect x="11.6" y="12" class="st5" width="3.3" height="3.3"/>
		</g>
	</g>
	<g>
		<g>
			<g>
				<path class="st6" d="M44.5,12.5c-0.3,0.5-0.7,0.9-1.2,1.1c-0.5,0.3-1.1,0.4-1.7,0.5c-0.6,0.1-1.2,0.1-1.7,0.1H36v-12h4.1
					c0.6,0,1.2,0.1,1.7,0.2c0.5,0.1,1,0.3,1.3,0.5c0.4,0.2,0.7,0.5,0.9,0.9c0.2,0.4,0.3,0.8,0.3,1.3c0,0.6-0.1,1.1-0.4,1.5
					c-0.3,0.4-0.7,0.8-1.3,1c0.7,0.2,1.3,0.5,1.7,1c0.4,0.5,0.7,1.1,0.7,1.8C45,11.4,44.9,12,44.5,12.5z M41.2,4.4
					c-0.4-0.2-0.9-0.3-1.5-0.3h-1.1v3h1.1c0.7,0,1.2-0.1,1.6-0.4s0.5-0.7,0.5-1.2C41.8,5,41.6,4.7,41.2,4.4z M41.8,9.4
					c-0.4-0.3-1-0.5-1.7-0.5h-1.5v3.5h1.5c0.8,0,1.3-0.2,1.7-0.5c0.4-0.3,0.6-0.7,0.6-1.3C42.4,10.1,42.2,9.7,41.8,9.4z"/>
				<path class="st6" d="M54.6,12.5c-0.3,0.5-0.7,0.9-1.2,1.1c-0.5,0.3-1.1,0.4-1.7,0.5c-0.6,0.1-1.2,0.1-1.7,0.1h-3.9v-12h4.1
					c0.6,0,1.2,0.1,1.7,0.2c0.5,0.1,1,0.3,1.3,0.5c0.4,0.2,0.7,0.5,0.9,0.9c0.2,0.4,0.3,0.8,0.3,1.3c0,0.6-0.1,1.1-0.4,1.5
					c-0.3,0.4-0.7,0.8-1.3,1c0.7,0.2,1.3,0.5,1.7,1c0.4,0.5,0.7,1.1,0.7,1.8C55.1,11.4,55,12,54.6,12.5z M51.3,4.4
					c-0.4-0.2-0.9-0.3-1.5-0.3h-1.1v3h1.1c0.7,0,1.2-0.1,1.6-0.4c0.4-0.3,0.5-0.7,0.5-1.2C51.9,5,51.7,4.7,51.3,4.4z M51.9,9.4
					c-0.4-0.3-1-0.5-1.7-0.5h-1.5v3.5h1.5c0.8,0,1.3-0.2,1.7-0.5c0.4-0.3,0.6-0.7,0.6-1.3C52.5,10.1,52.3,9.7,51.9,9.4z"/>
				<path class="st6" d="M68.4,14.3c0-1.6-0.1-3.2-0.1-4.8s-0.2-3.2-0.2-4.6h0l-3.3,9.5h-2.5l-3.3-9.5h0c-0.1,1.4-0.1,3-0.2,4.6
					c-0.1,1.6-0.1,3.3-0.1,4.9h-2.3c0-2,0.1-4,0.2-6s0.3-4,0.5-6h3.6l3.1,9.1h0l3-9.1h3.6c0.2,2,0.4,4.1,0.5,6.1c0.1,2,0.2,4,0.2,6
					C70.9,14.3,68.4,14.3,68.4,14.3z"/>
				<path class="st6" d="M79.1,14.3l-3-5H75v5h-2.6v-12h4.4c0.7,0,1.3,0.1,1.8,0.2s1,0.3,1.4,0.6s0.7,0.6,0.9,1
					c0.2,0.4,0.3,0.9,0.3,1.4c0,0.8-0.2,1.5-0.7,2.1s-1.1,1-2,1.2l3.5,5.5L79.1,14.3L79.1,14.3z M78,4.6c-0.3-0.3-0.8-0.4-1.5-0.4
					H75v3.2h1.3c0.7,0,1.3-0.2,1.7-0.5c0.4-0.3,0.6-0.7,0.6-1.3C78.5,5.2,78.4,4.8,78,4.6z"/>
				<path class="st6" d="M83,14.3v-12h2.6v12L83,14.3L83,14.3z"/>
				<path class="st6" d="M86.9,10.6V8.7h4.9v1.9L86.9,10.6L86.9,10.6z"/>
				<path class="st6" d="M93,14.3v-12h7.6v1.9h-5v3h4.3V9h-4.3v3.4h5.1v1.9L93,14.3L93,14.3z"/>
				<path class="st6" d="M109.2,14.3l-3-5H105v5h-2.6v-12h4.4c0.7,0,1.3,0.1,1.8,0.2s1,0.3,1.4,0.6c0.4,0.3,0.7,0.6,0.9,1
					c0.2,0.4,0.3,0.9,0.3,1.4c0,0.8-0.2,1.5-0.7,2.1s-1.1,1-2,1.2l3.5,5.5L109.2,14.3L109.2,14.3z M108.1,4.6
					c-0.3-0.3-0.8-0.4-1.5-0.4h-1.6v3.2h1.3c0.7,0,1.3-0.2,1.7-0.5c0.4-0.3,0.6-0.7,0.6-1.3C108.6,5.2,108.5,4.8,108.1,4.6z"/>
				<path class="st6" d="M113.1,14.3v-12h2.6v12L113.1,14.3L113.1,14.3z"/>
				<path class="st6" d="M125.3,14.3c-0.6,0.1-1.2,0.2-1.8,0.2c-2.1,0-3.7-0.5-4.8-1.6c-1.1-1-1.7-2.5-1.7-4.5c0-1,0.2-1.9,0.5-2.7
					c0.3-0.8,0.8-1.5,1.3-2c0.6-0.5,1.3-1,2.1-1.2c0.8-0.3,1.7-0.4,2.7-0.4c0.6,0,1.1,0.1,1.7,0.2c0.6,0.1,1.1,0.3,1.6,0.5l-0.6,1.9
					c-0.4-0.2-0.9-0.3-1.3-0.5c-0.5-0.1-0.9-0.2-1.4-0.2c-0.6,0-1.2,0.1-1.7,0.3c-0.5,0.2-0.9,0.5-1.2,0.9c-0.3,0.4-0.6,0.8-0.7,1.4
					c-0.2,0.5-0.2,1.1-0.2,1.7c0,1.4,0.3,2.4,1,3.2c0.7,0.8,1.7,1.2,3,1.2c0.5,0,0.9,0,1.4-0.1c0.5-0.1,0.9-0.2,1.4-0.4l0.5,1.8
					C126.5,14.1,126,14.2,125.3,14.3z"/>
			</g>
		</g>
		<g>
			<path class="st6" d="M134.2,3.2c0,1.2-1,2.2-2.3,2.2c-1.3,0-2.4-0.9-2.4-2.2c0-1.2,1-2.1,2.4-2.1C133.2,1,134.2,2,134.2,3.2z
				 M130.1,3.2c0,0.9,0.8,1.7,1.8,1.7c1,0,1.7-0.8,1.7-1.7c0-0.9-0.7-1.7-1.8-1.7S130.1,2.2,130.1,3.2z M131.5,4.3H131V2.2
				c0.2,0,0.5-0.1,0.9-0.1c0.4,0,0.6,0.1,0.8,0.2c0.1,0.1,0.2,0.3,0.2,0.5c0,0.2-0.2,0.4-0.5,0.5v0c0.2,0.1,0.3,0.2,0.4,0.5
				c0.1,0.3,0.1,0.5,0.2,0.5h-0.6c-0.1-0.1-0.1-0.3-0.2-0.5c0-0.2-0.2-0.3-0.5-0.3h-0.3L131.5,4.3L131.5,4.3z M131.6,3.1h0.3
				c0.3,0,0.5-0.1,0.5-0.3c0-0.2-0.2-0.3-0.5-0.3c-0.1,0-0.2,0-0.3,0V3.1z"/>
		</g>
	</g>
</g>
</svg>
